<svg width="500" height="500" version="1.1" xmlns="http://www.w3.org/2000/svg" desc="Created with imagetracer.js version 1.2.6" ><path fill="rgb(255,255,255)" stroke="rgb(255,255,255)" stroke-width="1" opacity="0.8313725490196079" d="M 178.5 203 L 186 205 Q 188.1 210.2 183.5 209 Q 182.1 206.4 177.5 207 L 173 209 L 171 212.5 L 171 217.5 L 174.5 222 L 181.5 223 Q 184.5 221.4 183 216 L 187 216 L 187 223.5 Q 184.5 228 176.5 227 Q 170.4 225.6 168 220.5 L 167 213.5 Q 168.3 207.8 172.5 205 L 178.5 203 Z " /><path fill="rgb(255,255,255)" stroke="rgb(255,255,255)" stroke-width="1" opacity="0.8313725490196079" d="M 270.5 203 L 278 205 L 276.5 209 Q 274.2 206.3 268.5 207 L 264 210.5 L 263 218.5 Q 264.9 224.1 273.5 223 L 276.5 221 L 278 225 Q 275.4 227.7 268.5 227 L 262 224 L 259 218.5 L 259 212.5 L 264.5 205 L 270.5 203 Z " /><path fill="rgb(255,255,255)" stroke="rgb(255,255,255)" stroke-width="1" opacity="0.8313725490196079" d="M 325.5 203 L 330.5 204 L 333 206.5 L 331.5 209 Q 329.2 206.3 323.5 207 L 318 211.5 L 317 215.5 L 322.5 223 Q 329.2 224.2 331.5 221 L 333 225 L 327.5 227 L 323.5 227 L 316 222.5 Q 312.8 219.2 314 211.5 L 317 206 L 325.5 203 Z " /><path fill="rgb(255,255,255)" stroke="rgb(255,255,255)" stroke-width="1" opacity="0.8313725490196079" d="M 199 204 L 203 204 L 203 205.5 L 211 226 L 207 224.5 L 205.5 222 L 196.5 222 L 196 223.5 L 195 226 L 191 226 L 191 224.5 L 199 204 Z M 202 210 L 198 217 L 199 218 L 204 218 L 202 210 Z " /><path fill="rgb(255,255,255)" stroke="rgb(255,255,255)" stroke-width="1" opacity="0.8313725490196079" d="M 216 204 L 220 204.5 L 220 223 L 230.5 223 L 231 226 L 216 226 L 216 204 Z " /><path fill="rgb(255,255,255)" stroke="rgb(255,255,255)" stroke-width="1" opacity="0.8313725490196079" d="M 243 204 L 247 205.5 L 255 226 L 251 226 L 251 224.5 L 250 222 L 239.5 222 L 239 224.5 Q 238.3 226.8 234.5 226 L 235 224.5 L 243 204 Z M 245 210 L 242 217 L 242 218 L 248 218 L 245 210 Z " /><path fill="rgb(255,255,255)" stroke="rgb(255,255,255)" stroke-width="1" opacity="0.8313725490196079" d="M 282 204 L 298.5 204 L 299 207 L 292 207 L 292 225.5 L 289 226 L 289 207.5 L 288.5 207 L 282 207 L 282 204 Z " /><path fill="rgb(255,255,255)" stroke="rgb(255,255,255)" stroke-width="1" opacity="0.8313725490196079" d="M 305 204 L 308 204.5 L 308 226 L 305 225.5 L 305 204 Z " /><path fill="rgb(255,255,255)" stroke="rgb(255,255,255)" stroke-width="1" opacity="0.8313725490196079" d="M 221.5 236 Q 233.1 236.4 238 243.5 L 242 252.5 L 242 258.5 Q 240.3 267.8 233.5 272 Q 228.7 276.2 218.5 275 Q 210.2 272.9 206 266.5 L 203 258.5 L 203 252.5 Q 204.7 244.2 210.5 240 L 221.5 236 Z M 221 244 L 217 246 Q 212 249 211 256 L 214 264 L 220 267 L 228 266 Q 233 263 234 256 L 232 250 Q 229 244 221 244 Z " /><path fill="rgb(255,255,255)" stroke="rgb(255,255,255)" stroke-width="1" opacity="0.8313725490196079" d="M 167 237 L 187.5 237 L 194 241.5 Q 197.2 244.8 196 252.5 L 191 259.5 L 191 261.5 L 197 274 L 188.5 274 L 187 272.5 L 181.5 262 L 175 262 L 175 274 L 167 274 L 167 237 Z M 175 244 L 175 254 L 185 254 L 188 251 L 187 247 Q 183 243 175 244 Z " /><path fill="rgb(255,255,255)" stroke="rgb(255,255,255)" stroke-width="1" opacity="0.8313725490196079" d="M 263.5 237 Q 270.5 235.5 270 238.5 L 283 268.5 L 284 274 L 276.5 274 L 275 272.5 L 274 268 L 259.5 268 L 259 269.5 L 257 274 L 249 274 L 249 271.5 L 263.5 237 Z M 267 249 L 263 259 L 263 260 L 271 260 L 267 249 Z " /><path fill="rgb(255,255,255)" stroke="rgb(255,255,255)" stroke-width="1" opacity="0.8313725490196079" d="M 295 237 L 303.5 237 L 304 238.5 L 312.5 260 L 321.5 237 L 330 237 L 330 242.5 L 331 243.5 L 332 261.5 L 334 274 L 326 274 L 326 271.5 L 325 270.5 L 323.5 253 L 314.5 274 Q 308.4 275.3 309 272.5 L 301.5 253 L 299 274 L 291 274 L 291 267.5 L 293 257.5 L 294 239.5 L 295 237 Z " /><path fill="rgb(0,0,0)" stroke="rgb(0,0,0)" stroke-width="1" opacity="0" d="M 0 0 L 500 0 L 500 500 L 0 500 L 0 0 Z M 179 203 L 173 205 Q 168 208 167 214 L 168 221 Q 170 226 177 227 Q 184 228 187 224 L 187 216 L 183 216 Q 184 221 182 223 L 175 222 L 171 218 L 171 213 L 173 209 L 178 207 Q 182 206 184 209 Q 188 210 186 205 L 179 203 Z M 271 203 L 265 205 L 259 213 L 259 219 L 262 224 L 269 227 Q 275 228 278 225 L 277 221 L 274 223 Q 265 224 263 219 L 264 211 L 269 207 Q 274 206 277 209 L 278 205 L 271 203 Z M 326 203 L 317 206 L 314 212 Q 313 219 316 223 L 324 227 L 328 227 L 333 225 L 332 221 Q 329 224 323 223 L 317 216 L 318 212 L 324 207 Q 329 206 332 209 L 333 207 L 331 204 L 326 203 Z M 199 204 L 191 225 L 191 226 L 195 226 L 196 224 L 197 222 L 206 222 L 207 225 L 211 226 L 203 206 L 203 204 L 199 204 Z M 216 204 L 216 226 L 231 226 L 231 223 L 220 223 L 220 205 L 216 204 Z M 243 204 L 235 225 L 235 226 Q 238 227 239 225 L 240 222 L 250 222 L 251 225 L 251 226 L 255 226 L 247 206 L 243 204 Z M 282 204 L 282 207 L 289 207 L 289 208 L 289 226 L 292 226 L 292 207 L 299 207 L 299 204 L 282 204 Z M 305 204 L 305 226 L 308 226 L 308 205 L 305 204 Z M 222 236 L 211 240 Q 205 244 203 253 L 203 259 L 206 267 Q 210 273 219 275 Q 229 276 234 272 Q 240 268 242 259 L 242 253 L 238 244 Q 233 236 222 236 Z M 167 237 L 167 274 L 175 274 L 175 262 L 182 262 L 187 273 L 189 274 L 197 274 L 191 262 L 191 260 L 196 253 Q 197 245 194 242 L 188 237 L 167 237 Z M 264 237 L 249 272 L 249 274 L 257 274 L 259 270 L 260 268 L 274 268 L 275 273 L 277 274 L 284 274 L 283 269 L 270 239 Q 271 235 264 237 Z M 295 237 L 294 240 L 293 258 L 291 268 L 291 274 L 299 274 L 302 253 L 309 273 Q 308 275 315 274 L 324 253 L 325 271 L 326 272 L 326 274 L 334 274 L 332 262 L 331 244 L 330 243 L 330 237 L 322 237 L 313 260 L 304 239 L 304 237 L 295 237 Z " /><path fill="rgb(0,0,0)" stroke="rgb(0,0,0)" stroke-width="1" opacity="0" d="M 201.5 210 L 204 218 L 198.5 218 L 198 216.5 L 201.5 210 Z " /><path fill="rgb(0,0,0)" stroke="rgb(0,0,0)" stroke-width="1" opacity="0" d="M 244.5 210 L 248 217.5 L 241.5 218 L 242 216.5 L 244.5 210 Z " /><path fill="rgb(0,0,0)" stroke="rgb(0,0,0)" stroke-width="1" opacity="0" d="M 175 244 Q 183.2 242.6 187 246.5 L 188 250.5 L 184.5 254 L 175 254 L 175 244 Z " /><path fill="rgb(0,0,0)" stroke="rgb(0,0,0)" stroke-width="1" opacity="0" d="M 220.5 244 Q 228.9 244.1 232 249.5 L 234 255.5 Q 232.9 262.9 227.5 266 L 219.5 267 L 214 264 L 211 255.5 Q 211.9 248.9 216.5 246 L 220.5 244 Z " /><path fill="rgb(0,0,0)" stroke="rgb(0,0,0)" stroke-width="1" opacity="0" d="M 266.5 249 L 271 259.5 L 262.5 260 L 263 258.5 L 266.5 249 Z " /></svg>